<mxfile host="app.diagrams.net" modified="2021-01-14T01:46:20.893Z" agent="5.0 (X11)" etag="ZEzlzmVEjdFwmyVhxi4Y" version="14.1.8" type="github">
  <diagram name="Page-1" id="bd83a815-5ea8-2e97-e5ec-87c9f400f2fa">
    <mxGraphModel dx="2031" dy="1109" grid="1" gridSize="10" guides="1" tooltips="1" connect="1" arrows="1" fold="1" page="1" pageScale="1.5" pageWidth="1169" pageHeight="826" background="#ffffff" math="0" shadow="0">
      <root>
        <mxCell id="0" style=";html=1;" />
        <mxCell id="1" style=";html=1;" parent="0" />
        <mxCell id="ivl2l61mqba5USXpvJk_-1" value="" style="shape=table;html=1;whiteSpace=wrap;startSize=0;container=1;collapsible=0;childLayout=tableLayout;labelBackgroundColor=#ffffff;labelBorderColor=none;strokeColor=none;" vertex="1" parent="1">
          <mxGeometry x="80" y="90" width="800" height="800" as="geometry" />
        </mxCell>
        <mxCell id="ivl2l61mqba5USXpvJk_-2" value="" style="shape=partialRectangle;html=1;whiteSpace=wrap;collapsible=0;dropTarget=0;pointerEvents=0;fillColor=none;top=0;left=0;bottom=0;right=0;points=[[0,0.5],[1,0.5]];portConstraint=eastwest;" vertex="1" parent="ivl2l61mqba5USXpvJk_-1">
          <mxGeometry width="800" height="100" as="geometry" />
        </mxCell>
        <mxCell id="ivl2l61mqba5USXpvJk_-3" value="" style="shape=partialRectangle;html=1;whiteSpace=wrap;connectable=0;overflow=hidden;fillColor=none;top=0;left=0;bottom=0;right=0;strokeColor=#FF3333;" vertex="1" parent="ivl2l61mqba5USXpvJk_-2">
          <mxGeometry width="100" height="100" as="geometry" />
        </mxCell>
        <mxCell id="ivl2l61mqba5USXpvJk_-4" value="" style="shape=partialRectangle;html=1;whiteSpace=wrap;connectable=0;overflow=hidden;fillColor=none;top=0;left=0;bottom=0;right=0;" vertex="1" parent="ivl2l61mqba5USXpvJk_-2">
          <mxGeometry x="100" width="100" height="100" as="geometry" />
        </mxCell>
        <mxCell id="ivl2l61mqba5USXpvJk_-5" value="" style="shape=partialRectangle;html=1;whiteSpace=wrap;connectable=0;overflow=hidden;fillColor=none;top=0;left=1;bottom=0;right=0;strokeColor=#0000FF;perimeterSpacing=0;strokeWidth=3;" vertex="1" parent="ivl2l61mqba5USXpvJk_-2">
          <mxGeometry x="200" width="100" height="100" as="geometry" />
        </mxCell>
        <mxCell id="ivl2l61mqba5USXpvJk_-6" value="" style="shape=partialRectangle;html=1;whiteSpace=wrap;connectable=0;overflow=hidden;fillColor=none;top=0;left=0;bottom=0;right=1;strokeColor=#FF0000;strokeWidth=3;" vertex="1" parent="ivl2l61mqba5USXpvJk_-2">
          <mxGeometry x="300" width="100" height="100" as="geometry" />
        </mxCell>
        <mxCell id="ivl2l61mqba5USXpvJk_-7" value="" style="shape=partialRectangle;html=1;whiteSpace=wrap;connectable=0;overflow=hidden;fillColor=none;top=0;left=0;bottom=0;right=0;" vertex="1" parent="ivl2l61mqba5USXpvJk_-2">
          <mxGeometry x="400" width="100" height="100" as="geometry" />
        </mxCell>
        <mxCell id="ivl2l61mqba5USXpvJk_-8" value="" style="shape=partialRectangle;html=1;whiteSpace=wrap;connectable=0;overflow=hidden;fillColor=none;top=0;left=0;bottom=0;right=0;" vertex="1" parent="ivl2l61mqba5USXpvJk_-2">
          <mxGeometry x="500" width="100" height="100" as="geometry" />
        </mxCell>
        <mxCell id="ivl2l61mqba5USXpvJk_-9" value="" style="shape=partialRectangle;html=1;whiteSpace=wrap;connectable=0;overflow=hidden;fillColor=none;top=0;left=0;bottom=0;right=0;" vertex="1" parent="ivl2l61mqba5USXpvJk_-2">
          <mxGeometry x="600" width="100" height="100" as="geometry" />
        </mxCell>
        <mxCell id="ivl2l61mqba5USXpvJk_-10" value="" style="shape=partialRectangle;html=1;whiteSpace=wrap;connectable=0;overflow=hidden;fillColor=none;top=0;left=0;bottom=0;right=0;" vertex="1" parent="ivl2l61mqba5USXpvJk_-2">
          <mxGeometry x="700" width="100" height="100" as="geometry" />
        </mxCell>
        <mxCell id="ivl2l61mqba5USXpvJk_-11" value="" style="shape=partialRectangle;html=1;whiteSpace=wrap;collapsible=0;dropTarget=0;pointerEvents=0;fillColor=none;top=0;left=0;bottom=0;right=0;points=[[0,0.5],[1,0.5]];portConstraint=eastwest;" vertex="1" parent="ivl2l61mqba5USXpvJk_-1">
          <mxGeometry y="100" width="800" height="100" as="geometry" />
        </mxCell>
        <mxCell id="ivl2l61mqba5USXpvJk_-12" value="" style="shape=partialRectangle;html=1;whiteSpace=wrap;connectable=0;overflow=hidden;fillColor=none;top=0;left=0;bottom=0;right=0;" vertex="1" parent="ivl2l61mqba5USXpvJk_-11">
          <mxGeometry width="100" height="100" as="geometry" />
        </mxCell>
        <mxCell id="ivl2l61mqba5USXpvJk_-13" value="" style="shape=partialRectangle;html=1;whiteSpace=wrap;connectable=0;overflow=hidden;fillColor=none;top=0;left=0;bottom=0;right=0;" vertex="1" parent="ivl2l61mqba5USXpvJk_-11">
          <mxGeometry x="100" width="100" height="100" as="geometry" />
        </mxCell>
        <mxCell id="ivl2l61mqba5USXpvJk_-14" value="" style="shape=partialRectangle;html=1;whiteSpace=wrap;connectable=0;overflow=hidden;top=0;left=1;bottom=0;right=0;strokeWidth=3;perimeterSpacing=0;fillColor=none;shadow=0;sketch=0;strokeColor=#0000FF;" vertex="1" parent="ivl2l61mqba5USXpvJk_-11">
          <mxGeometry x="200" width="100" height="100" as="geometry" />
        </mxCell>
        <mxCell id="ivl2l61mqba5USXpvJk_-15" value="" style="shape=partialRectangle;html=1;whiteSpace=wrap;connectable=0;overflow=hidden;fillColor=none;top=0;left=0;bottom=0;right=1;strokeColor=#FF0000;strokeWidth=3;" vertex="1" parent="ivl2l61mqba5USXpvJk_-11">
          <mxGeometry x="300" width="100" height="100" as="geometry" />
        </mxCell>
        <mxCell id="ivl2l61mqba5USXpvJk_-16" value="" style="shape=partialRectangle;html=1;whiteSpace=wrap;connectable=0;overflow=hidden;fillColor=none;top=0;left=0;bottom=0;right=0;" vertex="1" parent="ivl2l61mqba5USXpvJk_-11">
          <mxGeometry x="400" width="100" height="100" as="geometry" />
        </mxCell>
        <mxCell id="ivl2l61mqba5USXpvJk_-17" value="" style="shape=partialRectangle;html=1;whiteSpace=wrap;connectable=0;overflow=hidden;fillColor=none;top=0;left=0;bottom=0;right=0;" vertex="1" parent="ivl2l61mqba5USXpvJk_-11">
          <mxGeometry x="500" width="100" height="100" as="geometry" />
        </mxCell>
        <mxCell id="ivl2l61mqba5USXpvJk_-18" value="" style="shape=partialRectangle;html=1;whiteSpace=wrap;connectable=0;overflow=hidden;fillColor=none;top=0;left=0;bottom=0;right=0;" vertex="1" parent="ivl2l61mqba5USXpvJk_-11">
          <mxGeometry x="600" width="100" height="100" as="geometry" />
        </mxCell>
        <mxCell id="ivl2l61mqba5USXpvJk_-19" value="" style="shape=partialRectangle;html=1;whiteSpace=wrap;connectable=0;overflow=hidden;fillColor=none;top=0;left=0;bottom=0;right=0;" vertex="1" parent="ivl2l61mqba5USXpvJk_-11">
          <mxGeometry x="700" width="100" height="100" as="geometry" />
        </mxCell>
        <mxCell id="ivl2l61mqba5USXpvJk_-20" value="" style="shape=partialRectangle;html=1;whiteSpace=wrap;collapsible=0;dropTarget=0;pointerEvents=0;fillColor=none;top=0;left=0;bottom=0;right=0;points=[[0,0.5],[1,0.5]];portConstraint=eastwest;" vertex="1" parent="ivl2l61mqba5USXpvJk_-1">
          <mxGeometry y="200" width="800" height="100" as="geometry" />
        </mxCell>
        <mxCell id="ivl2l61mqba5USXpvJk_-21" value="" style="shape=partialRectangle;html=1;whiteSpace=wrap;connectable=0;overflow=hidden;fillColor=none;top=1;left=0;bottom=0;right=0;strokeColor=#0000FF;strokeWidth=3;" vertex="1" parent="ivl2l61mqba5USXpvJk_-20">
          <mxGeometry width="100" height="100" as="geometry" />
        </mxCell>
        <mxCell id="ivl2l61mqba5USXpvJk_-22" value="" style="shape=partialRectangle;html=1;whiteSpace=wrap;connectable=0;overflow=hidden;fillColor=none;top=1;left=0;bottom=0;right=0;strokeColor=#0000FF;strokeWidth=3;" vertex="1" parent="ivl2l61mqba5USXpvJk_-20">
          <mxGeometry x="100" width="100" height="100" as="geometry" />
        </mxCell>
        <mxCell id="ivl2l61mqba5USXpvJk_-23" value="" style="shape=partialRectangle;html=1;whiteSpace=wrap;connectable=0;overflow=hidden;fillColor=none;top=1;left=1;bottom=0;right=0;perimeterSpacing=0;strokeWidth=3;strokeColor=#0000FF;" vertex="1" parent="ivl2l61mqba5USXpvJk_-20">
          <mxGeometry x="200" width="100" height="100" as="geometry" />
        </mxCell>
        <mxCell id="ivl2l61mqba5USXpvJk_-24" value="" style="shape=partialRectangle;html=1;whiteSpace=wrap;connectable=0;overflow=hidden;fillColor=none;top=1;left=0;bottom=0;right=0;strokeWidth=3;strokeColor=#0000FF;" vertex="1" parent="ivl2l61mqba5USXpvJk_-20">
          <mxGeometry x="300" width="100" height="100" as="geometry" />
        </mxCell>
        <mxCell id="ivl2l61mqba5USXpvJk_-25" value="" style="shape=partialRectangle;html=1;whiteSpace=wrap;connectable=0;overflow=hidden;fillColor=none;top=0;left=1;bottom=0;right=0;strokeColor=#FF3333;strokeWidth=3;" vertex="1" parent="ivl2l61mqba5USXpvJk_-20">
          <mxGeometry x="400" width="100" height="100" as="geometry" />
        </mxCell>
        <mxCell id="ivl2l61mqba5USXpvJk_-26" value="" style="shape=partialRectangle;html=1;whiteSpace=wrap;connectable=0;overflow=hidden;fillColor=none;top=0;left=0;bottom=0;right=0;" vertex="1" parent="ivl2l61mqba5USXpvJk_-20">
          <mxGeometry x="500" width="100" height="100" as="geometry" />
        </mxCell>
        <mxCell id="ivl2l61mqba5USXpvJk_-27" value="" style="shape=partialRectangle;html=1;whiteSpace=wrap;connectable=0;overflow=hidden;fillColor=none;top=0;left=0;bottom=0;right=0;" vertex="1" parent="ivl2l61mqba5USXpvJk_-20">
          <mxGeometry x="600" width="100" height="100" as="geometry" />
        </mxCell>
        <mxCell id="ivl2l61mqba5USXpvJk_-28" value="" style="shape=partialRectangle;html=1;whiteSpace=wrap;connectable=0;overflow=hidden;fillColor=none;top=0;left=0;bottom=0;right=0;" vertex="1" parent="ivl2l61mqba5USXpvJk_-20">
          <mxGeometry x="700" width="100" height="100" as="geometry" />
        </mxCell>
        <mxCell id="ivl2l61mqba5USXpvJk_-29" value="" style="shape=partialRectangle;html=1;whiteSpace=wrap;collapsible=0;dropTarget=0;pointerEvents=0;fillColor=none;top=0;left=0;bottom=0;right=0;points=[[0,0.5],[1,0.5]];portConstraint=eastwest;" vertex="1" parent="ivl2l61mqba5USXpvJk_-1">
          <mxGeometry y="300" width="800" height="100" as="geometry" />
        </mxCell>
        <mxCell id="ivl2l61mqba5USXpvJk_-30" value="" style="shape=partialRectangle;html=1;whiteSpace=wrap;connectable=0;overflow=hidden;fillColor=none;top=0;left=0;bottom=0;right=0;" vertex="1" parent="ivl2l61mqba5USXpvJk_-29">
          <mxGeometry width="100" height="100" as="geometry" />
        </mxCell>
        <mxCell id="ivl2l61mqba5USXpvJk_-31" value="" style="shape=partialRectangle;html=1;whiteSpace=wrap;connectable=0;overflow=hidden;fillColor=none;top=0;left=0;bottom=0;right=0;" vertex="1" parent="ivl2l61mqba5USXpvJk_-29">
          <mxGeometry x="100" width="100" height="100" as="geometry" />
        </mxCell>
        <mxCell id="ivl2l61mqba5USXpvJk_-32" value="" style="shape=partialRectangle;html=1;whiteSpace=wrap;connectable=0;overflow=hidden;fillColor=none;top=0;left=1;bottom=0;right=0;strokeColor=#0000FF;perimeterSpacing=0;strokeWidth=3;" vertex="1" parent="ivl2l61mqba5USXpvJk_-29">
          <mxGeometry x="200" width="100" height="100" as="geometry" />
        </mxCell>
        <mxCell id="ivl2l61mqba5USXpvJk_-33" value="" style="shape=partialRectangle;html=1;whiteSpace=wrap;connectable=0;overflow=hidden;fillColor=none;top=0;left=0;bottom=1;right=1;strokeWidth=3;strokeColor=#FF0000;" vertex="1" parent="ivl2l61mqba5USXpvJk_-29">
          <mxGeometry x="300" width="100" height="100" as="geometry" />
        </mxCell>
        <mxCell id="ivl2l61mqba5USXpvJk_-34" value="" style="shape=partialRectangle;html=1;whiteSpace=wrap;connectable=0;overflow=hidden;fillColor=none;top=0;left=0;bottom=0;right=0;" vertex="1" parent="ivl2l61mqba5USXpvJk_-29">
          <mxGeometry x="400" width="100" height="100" as="geometry" />
        </mxCell>
        <mxCell id="ivl2l61mqba5USXpvJk_-35" value="" style="shape=partialRectangle;html=1;whiteSpace=wrap;connectable=0;overflow=hidden;fillColor=none;top=0;left=0;bottom=0;right=0;" vertex="1" parent="ivl2l61mqba5USXpvJk_-29">
          <mxGeometry x="500" width="100" height="100" as="geometry" />
        </mxCell>
        <mxCell id="ivl2l61mqba5USXpvJk_-36" value="" style="shape=partialRectangle;html=1;whiteSpace=wrap;connectable=0;overflow=hidden;fillColor=none;top=0;left=0;bottom=1;right=0;strokeColor=#FF0000;strokeWidth=3;" vertex="1" parent="ivl2l61mqba5USXpvJk_-29">
          <mxGeometry x="600" width="100" height="100" as="geometry" />
        </mxCell>
        <mxCell id="ivl2l61mqba5USXpvJk_-37" value="" style="shape=partialRectangle;html=1;whiteSpace=wrap;connectable=0;overflow=hidden;fillColor=none;top=0;left=0;bottom=0;right=0;" vertex="1" parent="ivl2l61mqba5USXpvJk_-29">
          <mxGeometry x="700" width="100" height="100" as="geometry" />
        </mxCell>
        <mxCell id="ivl2l61mqba5USXpvJk_-38" value="" style="shape=partialRectangle;html=1;whiteSpace=wrap;collapsible=0;dropTarget=0;pointerEvents=0;fillColor=none;top=0;left=0;bottom=0;right=0;points=[[0,0.5],[1,0.5]];portConstraint=eastwest;" vertex="1" parent="ivl2l61mqba5USXpvJk_-1">
          <mxGeometry y="400" width="800" height="100" as="geometry" />
        </mxCell>
        <mxCell id="ivl2l61mqba5USXpvJk_-39" value="" style="shape=partialRectangle;html=1;whiteSpace=wrap;connectable=0;overflow=hidden;fillColor=none;top=1;left=0;bottom=0;right=0;strokeColor=#FF3333;strokeWidth=3;" vertex="1" parent="ivl2l61mqba5USXpvJk_-38">
          <mxGeometry width="100" height="100" as="geometry" />
        </mxCell>
        <mxCell id="ivl2l61mqba5USXpvJk_-40" value="" style="shape=partialRectangle;html=1;whiteSpace=wrap;connectable=0;overflow=hidden;fillColor=none;top=1;left=0;bottom=0;right=0;strokeColor=#FF3333;strokeWidth=3;" vertex="1" parent="ivl2l61mqba5USXpvJk_-38">
          <mxGeometry x="100" width="100" height="100" as="geometry" />
        </mxCell>
        <mxCell id="ivl2l61mqba5USXpvJk_-41" value="" style="shape=partialRectangle;html=1;whiteSpace=wrap;connectable=0;overflow=hidden;fillColor=none;top=1;left=0;bottom=0;right=0;strokeWidth=3;perimeterSpacing=0;strokeColor=#FF3333;" vertex="1" parent="ivl2l61mqba5USXpvJk_-38">
          <mxGeometry x="200" width="100" height="100" as="geometry" />
        </mxCell>
        <mxCell id="ivl2l61mqba5USXpvJk_-42" value="" style="shape=partialRectangle;html=1;whiteSpace=wrap;connectable=0;overflow=hidden;fillColor=none;top=0;left=0;bottom=0;right=1;strokeColor=#FF0000;strokeWidth=3;" vertex="1" parent="ivl2l61mqba5USXpvJk_-38">
          <mxGeometry x="300" width="100" height="100" as="geometry" />
        </mxCell>
        <mxCell id="ivl2l61mqba5USXpvJk_-43" value="" style="shape=partialRectangle;html=1;whiteSpace=wrap;connectable=0;overflow=hidden;fillColor=none;top=1;left=0;bottom=0;right=0;strokeColor=#FF0000;strokeWidth=3;" vertex="1" parent="ivl2l61mqba5USXpvJk_-38">
          <mxGeometry x="400" width="100" height="100" as="geometry" />
        </mxCell>
        <mxCell id="ivl2l61mqba5USXpvJk_-44" value="" style="shape=partialRectangle;html=1;whiteSpace=wrap;connectable=0;overflow=hidden;fillColor=none;top=1;left=0;bottom=0;right=0;strokeColor=#FF0000;strokeWidth=3;" vertex="1" parent="ivl2l61mqba5USXpvJk_-38">
          <mxGeometry x="500" width="100" height="100" as="geometry" />
        </mxCell>
        <mxCell id="ivl2l61mqba5USXpvJk_-45" value="" style="shape=partialRectangle;html=1;whiteSpace=wrap;connectable=0;overflow=hidden;fillColor=none;top=0;left=1;bottom=0;right=0;strokeWidth=3;strokeColor=#0000FF;perimeterSpacing=0;" vertex="1" parent="ivl2l61mqba5USXpvJk_-38">
          <mxGeometry x="600" width="100" height="100" as="geometry" />
        </mxCell>
        <mxCell id="ivl2l61mqba5USXpvJk_-46" value="" style="shape=partialRectangle;html=1;whiteSpace=wrap;connectable=0;overflow=hidden;fillColor=none;top=1;left=0;bottom=0;right=0;strokeColor=#FF0000;strokeWidth=3;" vertex="1" parent="ivl2l61mqba5USXpvJk_-38">
          <mxGeometry x="700" width="100" height="100" as="geometry" />
        </mxCell>
        <mxCell id="ivl2l61mqba5USXpvJk_-47" value="" style="shape=partialRectangle;html=1;whiteSpace=wrap;collapsible=0;dropTarget=0;pointerEvents=0;fillColor=none;top=0;left=0;bottom=0;right=0;points=[[0,0.5],[1,0.5]];portConstraint=eastwest;" vertex="1" parent="ivl2l61mqba5USXpvJk_-1">
          <mxGeometry y="500" width="800" height="100" as="geometry" />
        </mxCell>
        <mxCell id="ivl2l61mqba5USXpvJk_-48" value="" style="shape=partialRectangle;html=1;whiteSpace=wrap;connectable=0;overflow=hidden;fillColor=none;top=0;left=0;bottom=0;right=0;strokeColor=none;" vertex="1" parent="ivl2l61mqba5USXpvJk_-47">
          <mxGeometry width="100" height="100" as="geometry" />
        </mxCell>
        <mxCell id="ivl2l61mqba5USXpvJk_-49" value="" style="shape=partialRectangle;html=1;whiteSpace=wrap;connectable=0;overflow=hidden;fillColor=none;top=0;left=0;bottom=0;right=0;strokeColor=none;" vertex="1" parent="ivl2l61mqba5USXpvJk_-47">
          <mxGeometry x="100" width="100" height="100" as="geometry" />
        </mxCell>
        <mxCell id="ivl2l61mqba5USXpvJk_-50" value="" style="shape=partialRectangle;html=1;whiteSpace=wrap;connectable=0;overflow=hidden;fillColor=none;top=0;left=1;bottom=0;right=0;perimeterSpacing=0;strokeWidth=3;strokeColor=none;" vertex="1" parent="ivl2l61mqba5USXpvJk_-47">
          <mxGeometry x="200" width="100" height="100" as="geometry" />
        </mxCell>
        <mxCell id="ivl2l61mqba5USXpvJk_-51" value="" style="shape=partialRectangle;html=1;whiteSpace=wrap;connectable=0;overflow=hidden;fillColor=none;top=0;left=0;bottom=0;right=1;strokeColor=#FF0000;strokeWidth=3;" vertex="1" parent="ivl2l61mqba5USXpvJk_-47">
          <mxGeometry x="300" width="100" height="100" as="geometry" />
        </mxCell>
        <mxCell id="ivl2l61mqba5USXpvJk_-52" value="" style="shape=partialRectangle;html=1;whiteSpace=wrap;connectable=0;overflow=hidden;fillColor=none;top=0;left=0;bottom=0;right=0;" vertex="1" parent="ivl2l61mqba5USXpvJk_-47">
          <mxGeometry x="400" width="100" height="100" as="geometry" />
        </mxCell>
        <mxCell id="ivl2l61mqba5USXpvJk_-53" value="" style="shape=partialRectangle;html=1;whiteSpace=wrap;connectable=0;overflow=hidden;fillColor=none;top=0;left=0;bottom=0;right=0;strokeWidth=3;" vertex="1" parent="ivl2l61mqba5USXpvJk_-47">
          <mxGeometry x="500" width="100" height="100" as="geometry" />
        </mxCell>
        <mxCell id="ivl2l61mqba5USXpvJk_-54" value="" style="shape=partialRectangle;html=1;whiteSpace=wrap;connectable=0;overflow=hidden;fillColor=none;top=0;left=1;bottom=0;right=0;strokeColor=#0000FF;perimeterSpacing=0;strokeWidth=3;" vertex="1" parent="ivl2l61mqba5USXpvJk_-47">
          <mxGeometry x="600" width="100" height="100" as="geometry" />
        </mxCell>
        <mxCell id="ivl2l61mqba5USXpvJk_-55" value="" style="shape=partialRectangle;html=1;whiteSpace=wrap;connectable=0;overflow=hidden;fillColor=none;top=0;left=0;bottom=1;right=0;strokeWidth=3;strokeColor=#0000FF;" vertex="1" parent="ivl2l61mqba5USXpvJk_-47">
          <mxGeometry x="700" width="100" height="100" as="geometry" />
        </mxCell>
        <mxCell id="ivl2l61mqba5USXpvJk_-56" value="" style="shape=partialRectangle;html=1;whiteSpace=wrap;collapsible=0;dropTarget=0;pointerEvents=0;fillColor=none;top=0;left=0;bottom=0;right=0;points=[[0,0.5],[1,0.5]];portConstraint=eastwest;" vertex="1" parent="ivl2l61mqba5USXpvJk_-1">
          <mxGeometry y="600" width="800" height="100" as="geometry" />
        </mxCell>
        <mxCell id="ivl2l61mqba5USXpvJk_-57" value="" style="shape=partialRectangle;html=1;whiteSpace=wrap;connectable=0;overflow=hidden;fillColor=none;top=1;left=0;bottom=0;right=0;strokeColor=none;" vertex="1" parent="ivl2l61mqba5USXpvJk_-56">
          <mxGeometry width="100" height="100" as="geometry" />
        </mxCell>
        <mxCell id="ivl2l61mqba5USXpvJk_-58" value="" style="shape=partialRectangle;html=1;whiteSpace=wrap;connectable=0;overflow=hidden;fillColor=none;top=1;left=0;bottom=0;right=0;strokeColor=none;" vertex="1" parent="ivl2l61mqba5USXpvJk_-56">
          <mxGeometry x="100" width="100" height="100" as="geometry" />
        </mxCell>
        <mxCell id="ivl2l61mqba5USXpvJk_-59" value="" style="shape=partialRectangle;html=1;whiteSpace=wrap;connectable=0;overflow=hidden;fillColor=none;top=1;left=1;bottom=0;right=0;perimeterSpacing=0;strokeWidth=3;strokeColor=none;" vertex="1" parent="ivl2l61mqba5USXpvJk_-56">
          <mxGeometry x="200" width="100" height="100" as="geometry" />
        </mxCell>
        <mxCell id="ivl2l61mqba5USXpvJk_-60" value="" style="shape=partialRectangle;html=1;whiteSpace=wrap;connectable=0;overflow=hidden;fillColor=none;top=0;left=0;bottom=0;right=1;strokeColor=#FF0000;strokeWidth=3;" vertex="1" parent="ivl2l61mqba5USXpvJk_-56">
          <mxGeometry x="300" width="100" height="100" as="geometry" />
        </mxCell>
        <mxCell id="ivl2l61mqba5USXpvJk_-61" value="" style="shape=partialRectangle;html=1;whiteSpace=wrap;connectable=0;overflow=hidden;fillColor=none;top=1;left=0;bottom=0;right=0;strokeColor=#0000FF;strokeWidth=3;" vertex="1" parent="ivl2l61mqba5USXpvJk_-56">
          <mxGeometry x="400" width="100" height="100" as="geometry" />
        </mxCell>
        <mxCell id="ivl2l61mqba5USXpvJk_-62" value="" style="shape=partialRectangle;html=1;whiteSpace=wrap;connectable=0;overflow=hidden;fillColor=none;top=1;left=0;bottom=0;right=0;strokeColor=#0000FF;strokeWidth=3;" vertex="1" parent="ivl2l61mqba5USXpvJk_-56">
          <mxGeometry x="500" width="100" height="100" as="geometry" />
        </mxCell>
        <mxCell id="ivl2l61mqba5USXpvJk_-63" value="" style="shape=partialRectangle;html=1;whiteSpace=wrap;connectable=0;overflow=hidden;fillColor=none;top=1;left=1;bottom=0;right=0;perimeterSpacing=0;strokeWidth=3;strokeColor=#0000FF;" vertex="1" parent="ivl2l61mqba5USXpvJk_-56">
          <mxGeometry x="600" width="100" height="100" as="geometry" />
        </mxCell>
        <mxCell id="ivl2l61mqba5USXpvJk_-64" value="" style="shape=partialRectangle;html=1;whiteSpace=wrap;connectable=0;overflow=hidden;fillColor=none;top=0;left=1;bottom=1;right=0;strokeColor=#00FF00;strokeWidth=3;" vertex="1" parent="ivl2l61mqba5USXpvJk_-56">
          <mxGeometry x="700" width="100" height="100" as="geometry" />
        </mxCell>
        <mxCell id="ivl2l61mqba5USXpvJk_-65" value="" style="shape=partialRectangle;html=1;whiteSpace=wrap;collapsible=0;dropTarget=0;pointerEvents=0;fillColor=none;top=0;left=0;bottom=0;right=0;points=[[0,0.5],[1,0.5]];portConstraint=eastwest;" vertex="1" parent="ivl2l61mqba5USXpvJk_-1">
          <mxGeometry y="700" width="800" height="100" as="geometry" />
        </mxCell>
        <mxCell id="ivl2l61mqba5USXpvJk_-66" value="" style="shape=partialRectangle;html=1;whiteSpace=wrap;connectable=0;overflow=hidden;fillColor=none;top=0;left=0;bottom=0;right=0;" vertex="1" parent="ivl2l61mqba5USXpvJk_-65">
          <mxGeometry width="100" height="100" as="geometry" />
        </mxCell>
        <mxCell id="ivl2l61mqba5USXpvJk_-67" value="" style="shape=partialRectangle;html=1;whiteSpace=wrap;connectable=0;overflow=hidden;fillColor=none;top=0;left=0;bottom=0;right=0;" vertex="1" parent="ivl2l61mqba5USXpvJk_-65">
          <mxGeometry x="100" width="100" height="100" as="geometry" />
        </mxCell>
        <mxCell id="ivl2l61mqba5USXpvJk_-68" value="" style="shape=partialRectangle;html=1;whiteSpace=wrap;connectable=0;overflow=hidden;fillColor=none;top=0;left=1;bottom=0;right=0;perimeterSpacing=0;strokeWidth=3;strokeColor=none;" vertex="1" parent="ivl2l61mqba5USXpvJk_-65">
          <mxGeometry x="200" width="100" height="100" as="geometry" />
        </mxCell>
        <mxCell id="ivl2l61mqba5USXpvJk_-69" value="" style="shape=partialRectangle;html=1;whiteSpace=wrap;connectable=0;overflow=hidden;fillColor=none;top=0;left=0;bottom=0;right=1;strokeColor=#FF0000;strokeWidth=3;" vertex="1" parent="ivl2l61mqba5USXpvJk_-65">
          <mxGeometry x="300" width="100" height="100" as="geometry" />
        </mxCell>
        <mxCell id="ivl2l61mqba5USXpvJk_-70" value="" style="shape=partialRectangle;html=1;whiteSpace=wrap;connectable=0;overflow=hidden;fillColor=none;top=0;left=0;bottom=0;right=0;" vertex="1" parent="ivl2l61mqba5USXpvJk_-65">
          <mxGeometry x="400" width="100" height="100" as="geometry" />
        </mxCell>
        <mxCell id="ivl2l61mqba5USXpvJk_-71" value="" style="shape=partialRectangle;html=1;whiteSpace=wrap;connectable=0;overflow=hidden;fillColor=none;top=0;left=0;bottom=0;right=1;strokeWidth=3;strokeColor=#0000FF;" vertex="1" parent="ivl2l61mqba5USXpvJk_-65">
          <mxGeometry x="500" width="100" height="100" as="geometry" />
        </mxCell>
        <mxCell id="ivl2l61mqba5USXpvJk_-72" value="" style="shape=partialRectangle;html=1;whiteSpace=wrap;connectable=0;overflow=hidden;fillColor=none;top=1;left=0;bottom=0;right=1;perimeterSpacing=0;strokeWidth=3;strokeColor=#00FF80;" vertex="1" parent="ivl2l61mqba5USXpvJk_-65">
          <mxGeometry x="600" width="100" height="100" as="geometry" />
        </mxCell>
        <mxCell id="ivl2l61mqba5USXpvJk_-73" value="" style="shape=partialRectangle;html=1;whiteSpace=wrap;connectable=0;overflow=hidden;fillColor=none;top=0;left=0;bottom=0;right=0;" vertex="1" parent="ivl2l61mqba5USXpvJk_-65">
          <mxGeometry x="700" width="100" height="100" as="geometry" />
        </mxCell>
      </root>
    </mxGraphModel>
  </diagram>
</mxfile>
